<?xml version="1.0" standalone="no"?>
<!DOCTYPE svg PUBLIC "-//W3C//DTD SVG 20010904//EN"
 "http://www.w3.org/TR/2001/REC-SVG-20010904/DTD/svg10.dtd">
<svg version="1.0" xmlns="http://www.w3.org/2000/svg"
 width="700.000000pt" height="700.000000pt" viewBox="0 0 700.000000 700.000000"
 preserveAspectRatio="xMidYMid meet">
<metadata>
Created by potrace 1.11, written by Peter Selinger 2001-2013
</metadata>
<g transform="translate(0.000000,700.000000) scale(0.100000,-0.100000)"
fill="#000000" stroke="none">
<path d="M0 3500 l0 -3500 3500 0 3500 0 0 3500 0 3500 -3500 0 -3500 0 0
-3500z m6740 0 l0 -3240 -3240 0 -3240 0 0 3240 0 3240 3240 0 3240 0 0 -3240z"/>
<path d="M3419 5506 c-2 -2 -41 -7 -86 -10 -46 -4 -91 -9 -102 -11 -10 -2 -36
-6 -57 -9 -22 -4 -84 -18 -139 -32 -356 -90 -613 -286 -748 -574 -34 -73 -69
-180 -81 -250 -3 -19 -9 -46 -12 -60 -11 -42 -14 -362 -4 -405 4 -22 11 -58
14 -79 11 -72 65 -213 108 -286 102 -171 245 -293 461 -395 175 -83 313 -123
712 -210 413 -90 554 -141 643 -233 69 -70 86 -118 86 -242 1 -132 -20 -186
-102 -261 -122 -111 -282 -154 -572 -153 -381 2 -790 114 -1243 340 l-87 44 2
-412 3 -413 151 -51 c82 -28 161 -53 175 -56 13 -3 79 -20 147 -37 119 -31
195 -47 257 -57 17 -3 53 -9 80 -14 28 -6 73 -12 100 -15 28 -3 57 -8 65 -10
8 -2 56 -7 105 -11 50 -3 99 -8 110 -10 32 -7 424 -6 490 0 33 4 85 9 115 11
30 3 66 8 80 10 14 3 41 7 60 10 74 11 247 58 324 88 283 108 478 289 585 543
40 93 68 197 85 313 16 107 19 355 5 451 -32 224 -117 403 -258 539 -98 95
-277 200 -436 256 -27 9 -59 21 -70 26 -39 18 -233 68 -380 98 -82 18 -161 34
-175 37 -14 3 -36 8 -50 10 -14 2 -45 9 -70 14 -25 5 -56 12 -70 14 -76 12
-207 46 -288 73 -205 68 -283 154 -286 313 -4 236 155 361 500 395 59 6 295 6
344 1 19 -3 62 -7 95 -10 33 -3 85 -10 115 -16 30 -6 69 -13 85 -16 160 -28
552 -155 676 -220 16 -8 29 -11 30 -7 4 32 3 786 -1 792 -11 15 -373 94 -580
127 -14 2 -38 6 -55 9 -16 3 -52 7 -80 10 -27 3 -61 8 -75 10 -26 5 -82 11
-185 21 -70 6 -510 15 -516 10z"/>
</g>
</svg>
