<svg id="73896eda-b222-4fe2-9ac7-bb6d50c8ec67" data-name="Layer 2" xmlns="http://www.w3.org/2000/svg" viewBox="0 0 539.89 161.97">
  <rect x="3" y="3" width="533.89" height="155.97" style="fill: none;stroke: #fff;stroke-miterlimit: 10;stroke-width: 6px"/>
  <g>
    <path d="M159.82,237.63a21.62,21.62,0,0,0-3.06-2.28,38.26,38.26,0,0,0-5.4-2.82,47.31,47.31,0,0,0-6.9-2.34,30.25,30.25,0,0,0-7.56-1c-4.56,0-8,.84-10.2,2.52a8.31,8.31,0,0,0-3.36,7.08,7.28,7.28,0,0,0,1.26,4.38,10.79,10.79,0,0,0,3.66,3.06,30.29,30.29,0,0,0,6.06,2.4q3.65,1.08,8.46,2.28,6.22,1.68,11.34,3.6a31,31,0,0,1,8.64,4.8,20.05,20.05,0,0,1,5.46,6.9,23,23,0,0,1,1.92,9.9,24.77,24.77,0,0,1-2.58,11.7,21.86,21.86,0,0,1-7,7.86,30.43,30.43,0,0,1-10.08,4.38,50.7,50.7,0,0,1-11.94,1.38,64.08,64.08,0,0,1-19-2.88,58.41,58.41,0,0,1-16.8-8.16l7.32-14.28A22.7,22.7,0,0,0,114,279a57.9,57.9,0,0,0,6.66,3.48,51.49,51.49,0,0,0,8.52,2.94,38.44,38.44,0,0,0,9.6,1.2q13.68,0,13.68-8.76a7.24,7.24,0,0,0-1.56-4.68,13.33,13.33,0,0,0-4.44-3.36,42.86,42.86,0,0,0-7-2.64c-2.73-.8-5.76-1.68-9.12-2.64a77.53,77.53,0,0,1-10.62-3.66,27.76,27.76,0,0,1-7.5-4.68,17.3,17.3,0,0,1-4.5-6.24,21.43,21.43,0,0,1-1.5-8.46A26.34,26.34,0,0,1,108.7,230a23.07,23.07,0,0,1,6.66-8.4,30,30,0,0,1,9.9-5.1,40.86,40.86,0,0,1,12.12-1.74,47,47,0,0,1,16.56,2.82,61.91,61.91,0,0,1,13.2,6.66Z" transform="translate(-36.45 -176.96)" style="fill: #fff"/>
    <path d="M187.41,300.51v-85.2h36.12a24.18,24.18,0,0,1,10.86,2.46,28.09,28.09,0,0,1,8.58,6.48,30.58,30.58,0,0,1,5.64,9.12,27.43,27.43,0,0,1,2,10.26,29.57,29.57,0,0,1-1.92,10.5,29.15,29.15,0,0,1-5.4,9.06,26.53,26.53,0,0,1-8.4,6.36,24.3,24.3,0,0,1-10.8,2.4H204v28.56ZM204,257.43h19.2a9.48,9.48,0,0,0,7.62-3.72q3.06-3.72,3.06-10.08a16.6,16.6,0,0,0-1-5.82,14.14,14.14,0,0,0-2.52-4.38,10,10,0,0,0-3.66-2.7,10.72,10.72,0,0,0-4.26-.9H204Z" transform="translate(-36.45 -176.96)" style="fill: #fff"/>
    <path d="M303.33,301.11a38.71,38.71,0,0,1-17-3.66,41.7,41.7,0,0,1-13.08-9.72,45.08,45.08,0,0,1-11.46-29.82A42.82,42.82,0,0,1,265,241.59a45,45,0,0,1,8.76-13.8A41.79,41.79,0,0,1,287,218.25a39.36,39.36,0,0,1,16.68-3.54,37.41,37.41,0,0,1,16.86,3.78,42.11,42.11,0,0,1,13,9.9,45.58,45.58,0,0,1,8.4,13.92,43.8,43.8,0,0,1,3,15.84,43.08,43.08,0,0,1-3.12,16.26,44.14,44.14,0,0,1-8.64,13.68,41.54,41.54,0,0,1-13.2,9.48A39.36,39.36,0,0,1,303.33,301.11Zm-24.72-43.2a34.28,34.28,0,0,0,1.68,10.68,28.51,28.51,0,0,0,4.86,9.12,24.16,24.16,0,0,0,7.8,6.36,24.16,24.16,0,0,0,21.12-.06,24.18,24.18,0,0,0,7.8-6.54,29.15,29.15,0,0,0,4.8-9.18,34.09,34.09,0,0,0,1.62-10.38,33.2,33.2,0,0,0-1.74-10.68,29.45,29.45,0,0,0-4.92-9.12,23.49,23.49,0,0,0-7.8-6.3,24.3,24.3,0,0,0-21.06.12,23.68,23.68,0,0,0-7.8,6.48,29.1,29.1,0,0,0-4.74,9.12A34.09,34.09,0,0,0,278.61,257.91Z" transform="translate(-36.45 -176.96)" style="fill: #fff"/>
    <path d="M362.49,300.51v-85.2h37.68A24.18,24.18,0,0,1,411,217.77a28.09,28.09,0,0,1,8.58,6.48,30.58,30.58,0,0,1,5.64,9.12,27.43,27.43,0,0,1,2,10.26,28.33,28.33,0,0,1-4.14,15.06,23.76,23.76,0,0,1-11.22,9.78l19.44,32h-18.6L395.37,272H379.05v28.56Zm16.56-43.08h20.76a8.76,8.76,0,0,0,4.26-1.08,10.9,10.9,0,0,0,3.42-2.94,14.66,14.66,0,0,0,2.28-4.38,17,17,0,0,0,.84-5.4,15.38,15.38,0,0,0-1-5.52,14.4,14.4,0,0,0-2.58-4.38,11.67,11.67,0,0,0-3.72-2.88,9.66,9.66,0,0,0-4.26-1h-20Z" transform="translate(-36.45 -176.96)" style="fill: #fff"/>
    <path d="M509.49,229.83H482.25v70.68H465.81V229.83H438.57V215.31h70.92Z" transform="translate(-36.45 -176.96)" style="fill: #fff"/>
  </g>
</svg>
